<svg width="25" height="25" viewBox="0 0 25 25" fill="none" xmlns="http://www.w3.org/2000/svg">
<g id="documents_vkzohr5q7rvq 1" clip-path="url(#clip0_1_1574)">
<path id="Vector" d="M12.7353 14.2857C12.7353 13.8631 13.0779 13.5204 13.5006 13.5204H18.1019C18.5246 13.5204 18.8672 13.8631 18.8672 14.2857C18.8672 14.7084 18.5246 15.051 18.1019 15.051H13.5006C13.0779 15.051 12.7353 14.7084 12.7353 14.2857ZM13.5006 11.9898H18.1019C18.5246 11.9898 18.8672 11.6471 18.8672 11.2245C18.8672 10.8018 18.5246 10.4592 18.1019 10.4592H13.5006C13.0779 10.4592 12.7353 10.8018 12.7353 11.2245C12.7353 11.6471 13.0779 11.9898 13.5006 11.9898ZM24.235 6.37755V19.1266C24.2351 19.1404 24.2349 19.1541 24.2342 19.1679C24.2262 19.3443 24.1585 19.5051 24.0508 19.6307L24.0507 19.6307C24.0504 19.6311 24.0501 19.6314 24.0498 19.6318C24.0496 19.632 24.0494 19.6322 24.0492 19.6324C24.0491 19.6326 24.049 19.6327 24.0489 19.6328C24.0366 19.647 24.0237 19.6609 24.0102 19.6743L18.8991 24.7751C18.7684 24.9062 18.5904 24.9901 18.3929 24.9991C18.381 24.9997 18.369 25 18.3572 25C18.3552 25 18.3531 25 18.3511 25H8.13267C7.71001 25 7.36736 24.6573 7.36736 24.2347V19.3878H1.53093C1.10828 19.3878 0.765625 19.0451 0.765625 18.6224V0.765306C0.765625 0.342653 1.10828 0 1.53093 0H16.8681C17.2907 0 17.6334 0.342653 17.6334 0.765306V5.61225H23.4697C23.8924 5.61225 24.235 5.9549 24.235 6.37755ZM8.13267 5.61225H16.1028V1.53061H2.29624V17.8571H7.36736V6.37755C7.36736 5.9549 7.70996 5.61225 8.13267 5.61225ZM21.6195 19.898H19.1227V22.3897L21.6195 19.898ZM22.7044 7.14286H8.89797V23.4694H17.5921V19.1327C17.5921 18.71 17.9348 18.3673 18.3574 18.3673H22.7044V7.14286Z" fill="#FF8B03"/>
</g>
<defs>
<clipPath id="clip0_1_1574">
<rect width="25" height="25" fill="white"/>
</clipPath>
</defs>
</svg>
